<svg width="121" height="30" viewBox="0 0 121 30" fill="none" xmlns="http://www.w3.org/2000/svg">
<path d="M2.17188 0.25H6.14062L11.9844 16.9531L17.8281 0.25H21.7969L13.5781 23H10.3906L2.17188 0.25ZM0.03125 0.25H3.98438L4.70312 16.5312V23H0.03125V0.25ZM19.9844 0.25H23.9531V23H19.2656V16.5312L19.9844 0.25ZM32.7969 21.0938L37.2812 6.09375H42.1094L35.3125 25.5469C35.1667 25.974 34.9688 26.4323 34.7188 26.9219C34.4792 27.4115 34.151 27.875 33.7344 28.3125C33.3281 28.7604 32.8125 29.125 32.1875 29.4062C31.5729 29.6875 30.8177 29.8281 29.9219 29.8281C29.4948 29.8281 29.1458 29.8021 28.875 29.75C28.6042 29.6979 28.2812 29.625 27.9062 29.5312V26.2344C28.0208 26.2344 28.1406 26.2344 28.2656 26.2344C28.3906 26.2448 28.5104 26.25 28.625 26.25C29.2188 26.25 29.7031 26.1823 30.0781 26.0469C30.4531 25.9115 30.7552 25.7031 30.9844 25.4219C31.2135 25.151 31.3958 24.7969 31.5312 24.3594L32.7969 21.0938ZM30.9219 6.09375L34.5938 18.3438L35.2344 23.1094L32.1719 23.4375L26.0938 6.09375H30.9219ZM66.7812 19.3438V23H55.3281V19.3438H66.7812ZM56.8438 0.25V23H52.1562V0.25H56.8438ZM68.4688 14.7188V14.3906C68.4688 13.151 68.6458 12.0104 69 10.9688C69.3542 9.91667 69.8698 9.00521 70.5469 8.23438C71.224 7.46354 72.0573 6.86458 73.0469 6.4375C74.0365 6 75.1719 5.78125 76.4531 5.78125C77.7344 5.78125 78.875 6 79.875 6.4375C80.875 6.86458 81.7135 7.46354 82.3906 8.23438C83.0781 9.00521 83.599 9.91667 83.9531 10.9688C84.3073 12.0104 84.4844 13.151 84.4844 14.3906V14.7188C84.4844 15.9479 84.3073 17.0885 83.9531 18.1406C83.599 19.1823 83.0781 20.0938 82.3906 20.875C81.7135 21.6458 80.8802 22.2448 79.8906 22.6719C78.901 23.099 77.7656 23.3125 76.4844 23.3125C75.2031 23.3125 74.0625 23.099 73.0625 22.6719C72.0729 22.2448 71.2344 21.6458 70.5469 20.875C69.8698 20.0938 69.3542 19.1823 69 18.1406C68.6458 17.0885 68.4688 15.9479 68.4688 14.7188ZM72.9688 14.3906V14.7188C72.9688 15.4271 73.0312 16.0885 73.1562 16.7031C73.2812 17.3177 73.4792 17.8594 73.75 18.3281C74.0312 18.7865 74.3958 19.1458 74.8438 19.4062C75.2917 19.6667 75.8385 19.7969 76.4844 19.7969C77.1094 19.7969 77.6458 19.6667 78.0938 19.4062C78.5417 19.1458 78.901 18.7865 79.1719 18.3281C79.4427 17.8594 79.6406 17.3177 79.7656 16.7031C79.901 16.0885 79.9688 15.4271 79.9688 14.7188V14.3906C79.9688 13.7031 79.901 13.0573 79.7656 12.4531C79.6406 11.8385 79.4375 11.2969 79.1562 10.8281C78.8854 10.349 78.526 9.97396 78.0781 9.70312C77.6302 9.43229 77.0885 9.29688 76.4531 9.29688C75.8177 9.29688 75.276 9.43229 74.8281 9.70312C74.3906 9.97396 74.0312 10.349 73.75 10.8281C73.4792 11.2969 73.2812 11.8385 73.1562 12.4531C73.0312 13.0573 72.9688 13.7031 72.9688 14.3906ZM97.9531 6.09375H102.031V22.4375C102.031 23.9792 101.688 25.2865 101 26.3594C100.323 27.4427 99.375 28.2604 98.1562 28.8125C96.9375 29.375 95.5208 29.6562 93.9062 29.6562C93.1979 29.6562 92.4479 29.5625 91.6562 29.375C90.875 29.1875 90.125 28.8958 89.4062 28.5C88.6979 28.1042 88.1042 27.6042 87.625 27L89.6094 24.3438C90.1302 24.9479 90.7344 25.4167 91.4219 25.75C92.1094 26.0938 92.8698 26.2656 93.7031 26.2656C94.5156 26.2656 95.2031 26.1146 95.7656 25.8125C96.3281 25.5208 96.7604 25.0885 97.0625 24.5156C97.3646 23.9531 97.5156 23.2708 97.5156 22.4688V10L97.9531 6.09375ZM86.5781 14.75V14.4219C86.5781 13.1302 86.7344 11.9583 87.0469 10.9062C87.3698 9.84375 87.8229 8.93229 88.4062 8.17188C89 7.41146 89.7188 6.82292 90.5625 6.40625C91.4062 5.98958 92.3594 5.78125 93.4219 5.78125C94.5469 5.78125 95.4896 5.98958 96.25 6.40625C97.0104 6.82292 97.6354 7.41667 98.125 8.1875C98.6146 8.94792 98.9948 9.84896 99.2656 10.8906C99.5469 11.9219 99.7656 13.0521 99.9219 14.2812V15C99.7656 16.1771 99.5312 17.2708 99.2188 18.2812C98.9062 19.2917 98.4948 20.1771 97.9844 20.9375C97.474 21.6875 96.8385 22.2708 96.0781 22.6875C95.3281 23.1042 94.4323 23.3125 93.3906 23.3125C92.349 23.3125 91.4062 23.099 90.5625 22.6719C89.7292 22.2448 89.0156 21.6458 88.4219 20.875C87.8281 20.1042 87.3698 19.1979 87.0469 18.1562C86.7344 17.1146 86.5781 15.9792 86.5781 14.75ZM91.0781 14.4219V14.75C91.0781 15.4479 91.1458 16.099 91.2812 16.7031C91.4167 17.3073 91.625 17.8438 91.9062 18.3125C92.1979 18.7708 92.5573 19.1302 92.9844 19.3906C93.4219 19.6406 93.9375 19.7656 94.5312 19.7656C95.3542 19.7656 96.026 19.5938 96.5469 19.25C97.0677 18.8958 97.4583 18.4115 97.7188 17.7969C97.9792 17.1823 98.1302 16.474 98.1719 15.6719V13.625C98.151 12.9688 98.0625 12.3802 97.9062 11.8594C97.75 11.3281 97.5312 10.875 97.25 10.5C96.9688 10.125 96.6042 9.83333 96.1562 9.625C95.7083 9.41667 95.1771 9.3125 94.5625 9.3125C93.9688 9.3125 93.4531 9.44792 93.0156 9.71875C92.5885 9.97917 92.2292 10.3385 91.9375 10.7969C91.6562 11.2552 91.4427 11.7969 91.2969 12.4219C91.151 13.0365 91.0781 13.7031 91.0781 14.4219ZM104.812 14.7188V14.3906C104.812 13.151 104.99 12.0104 105.344 10.9688C105.698 9.91667 106.214 9.00521 106.891 8.23438C107.568 7.46354 108.401 6.86458 109.391 6.4375C110.38 6 111.516 5.78125 112.797 5.78125C114.078 5.78125 115.219 6 116.219 6.4375C117.219 6.86458 118.057 7.46354 118.734 8.23438C119.422 9.00521 119.943 9.91667 120.297 10.9688C120.651 12.0104 120.828 13.151 120.828 14.3906V14.7188C120.828 15.9479 120.651 17.0885 120.297 18.1406C119.943 19.1823 119.422 20.0938 118.734 20.875C118.057 21.6458 117.224 22.2448 116.234 22.6719C115.245 23.099 114.109 23.3125 112.828 23.3125C111.547 23.3125 110.406 23.099 109.406 22.6719C108.417 22.2448 107.578 21.6458 106.891 20.875C106.214 20.0938 105.698 19.1823 105.344 18.1406C104.99 17.0885 104.812 15.9479 104.812 14.7188ZM109.312 14.3906V14.7188C109.312 15.4271 109.375 16.0885 109.5 16.7031C109.625 17.3177 109.823 17.8594 110.094 18.3281C110.375 18.7865 110.74 19.1458 111.188 19.4062C111.635 19.6667 112.182 19.7969 112.828 19.7969C113.453 19.7969 113.99 19.6667 114.438 19.4062C114.885 19.1458 115.245 18.7865 115.516 18.3281C115.786 17.8594 115.984 17.3177 116.109 16.7031C116.245 16.0885 116.312 15.4271 116.312 14.7188V14.3906C116.312 13.7031 116.245 13.0573 116.109 12.4531C115.984 11.8385 115.781 11.2969 115.5 10.8281C115.229 10.349 114.87 9.97396 114.422 9.70312C113.974 9.43229 113.432 9.29688 112.797 9.29688C112.161 9.29688 111.62 9.43229 111.172 9.70312C110.734 9.97396 110.375 10.349 110.094 10.8281C109.823 11.2969 109.625 11.8385 109.5 12.4531C109.375 13.0573 109.312 13.7031 109.312 14.3906Z" fill="#6A0B0B"/>
</svg>
